<!--?xml version="1.0" encoding="us-ascii" standalone="no"?--><svg xmlns="http://www.w3.org/2000/svg" xmlns:xlink="http://www.w3.org/1999/xlink" contentstyletype="text/css" height="766px" preserveAspectRatio="none" style="width:1521px;height:766px;background:#FFFFFF;" version="1.1" viewBox="0 0 1521 766" width="1521px" zoomAndPan="magnify"><defs></defs><g><!--class Account--><g id="elem_Account"><rect codeline="1" fill="#F1F1F1" height="194.6719" id="Account" rx="2.5" ry="2.5" style="stroke:#181818;stroke-width:0.5;" width="304" x="161.5" y="286.12"></rect><ellipse cx="280.75" cy="302.12" fill="#ADD1B2" rx="11" ry="11" style="stroke:#181818;stroke-width:1.0;"></ellipse><path d="M283.7188,307.7606 Q283.1406,308.0575 282.5,308.1981 Q281.8594,308.3544 281.1563,308.3544 Q278.6563,308.3544 277.3281,306.7137 Q276.0156,305.0575 276.0156,301.9325 Q276.0156,298.8075 277.3281,297.1512 Q278.6563,295.495 281.1563,295.495 Q281.8594,295.495 282.5,295.6512 Q283.1563,295.8075 283.7188,296.1044 L283.7188,298.8231 Q283.0938,298.245 282.5,297.9794 Q281.9063,297.6981 281.2813,297.6981 Q279.9375,297.6981 279.25,298.7762 Q278.5625,299.8387 278.5625,301.9325 Q278.5625,304.0262 279.25,305.1044 Q279.9375,306.1669 281.2813,306.1669 Q281.9063,306.1669 282.5,305.9012 Q283.0938,305.62 283.7188,305.0419 L283.7188,307.7606 Z " fill="#000000"></path><text fill="#000000" font-family="sans-serif" font-size="14" lengthAdjust="spacing" textLength="57" x="301.25" y="306.9667">Account</text><line style="stroke:#181818;stroke-width:0.5;" x1="162.5" x2="464.5" y1="318.12" y2="318.12"></line><rect fill="none" height="6" style="stroke:#C82930;stroke-width:1.0;" width="6" x="169.5" y="328.7684"></rect><text fill="#000000" font-family="sans-serif" font-size="14" lengthAdjust="spacing" textLength="116" x="181.5" y="335.1151">balance: decimal</text><rect fill="none" height="6" style="stroke:#C82930;stroke-width:1.0;" width="6" x="169.5" y="345.0653"></rect><text fill="#000000" font-family="sans-serif" font-size="14" lengthAdjust="spacing" textLength="87" x="181.5" y="351.412">name: string</text><rect fill="none" height="6" style="stroke:#C82930;stroke-width:1.0;" width="6" x="169.5" y="361.3622"></rect><text fill="#000000" font-family="sans-serif" font-size="14" lengthAdjust="spacing" textLength="154" x="181.5" y="367.7089">validateWithdraw: bool</text><rect fill="none" height="6" style="stroke:#C82930;stroke-width:1.0;" width="6" x="169.5" y="377.6591"></rect><text fill="#000000" font-family="sans-serif" font-size="14" lengthAdjust="spacing" textLength="145" x="181.5" y="384.0057">validateDeposit: bool</text><ellipse cx="172.5" cy="396.9559" fill="none" rx="3" ry="3" style="stroke:#038048;stroke-width:1.0;"></ellipse><text fill="#000000" font-family="sans-serif" font-size="14" lengthAdjust="spacing" textLength="88" x="181.5" y="400.3026">Name: string</text><line style="stroke:#181818;stroke-width:0.5;" x1="162.5" x2="464.5" y1="407.6044" y2="407.6044"></line><ellipse cx="172.5" cy="421.2528" fill="#84BE84" rx="3" ry="3" style="stroke:#038048;stroke-width:1.0;"></ellipse><text fill="#000000" font-family="sans-serif" font-size="14" lengthAdjust="spacing" textLength="278" x="181.5" y="424.5995">Account(balance: decimal, name: string)</text><ellipse cx="172.5" cy="437.5497" fill="#84BE84" rx="3" ry="3" style="stroke:#038048;stroke-width:1.0;"></ellipse><text fill="#000000" font-family="sans-serif" font-size="14" lengthAdjust="spacing" textLength="218" x="181.5" y="440.8964">Deposit(amount: decimal): bool</text><ellipse cx="172.5" cy="453.8466" fill="#84BE84" rx="3" ry="3" style="stroke:#038048;stroke-width:1.0;"></ellipse><text fill="#000000" font-family="sans-serif" font-size="14" lengthAdjust="spacing" textLength="227" x="181.5" y="457.1932">Withdraw(amount: decimal): bool</text><ellipse cx="172.5" cy="470.1434" fill="#84BE84" rx="3" ry="3" style="stroke:#038048;stroke-width:1.0;"></ellipse><text fill="#000000" font-family="sans-serif" font-size="14" lengthAdjust="spacing" textLength="78" x="181.5" y="473.4901">Print(): void</text></g><!--class Bank--><g id="elem_Bank"><rect codeline="13" fill="#F1F1F1" height="194.6719" id="Bank" rx="2.5" ry="2.5" style="stroke:#181818;stroke-width:0.5;" width="384" x="302.5" y="7"></rect><ellipse cx="472.75" cy="23" fill="#ADD1B2" rx="11" ry="11" style="stroke:#181818;stroke-width:1.0;"></ellipse><path d="M475.7188,28.6406 Q475.1406,28.9375 474.5,29.0781 Q473.8594,29.2344 473.1563,29.2344 Q470.6563,29.2344 469.3281,27.5938 Q468.0156,25.9375 468.0156,22.8125 Q468.0156,19.6875 469.3281,18.0313 Q470.6563,16.375 473.1563,16.375 Q473.8594,16.375 474.5,16.5313 Q475.1563,16.6875 475.7188,16.9844 L475.7188,19.7031 Q475.0938,19.125 474.5,18.8594 Q473.9063,18.5781 473.2813,18.5781 Q471.9375,18.5781 471.25,19.6563 Q470.5625,20.7188 470.5625,22.8125 Q470.5625,24.9063 471.25,25.9844 Q471.9375,27.0469 473.2813,27.0469 Q473.9063,27.0469 474.5,26.7813 Q475.0938,26.5 475.7188,25.9219 L475.7188,28.6406 Z " fill="#000000"></path><text fill="#000000" font-family="sans-serif" font-size="14" lengthAdjust="spacing" textLength="35" x="493.25" y="27.8467">Bank</text><line style="stroke:#181818;stroke-width:0.5;" x1="303.5" x2="685.5" y1="39" y2="39"></line><rect fill="none" height="6" style="stroke:#C82930;stroke-width:1.0;" width="6" x="310.5" y="49.6484"></rect><text fill="#000000" font-family="sans-serif" font-size="14" lengthAdjust="spacing" textLength="184" x="322.5" y="55.9951">_accounts: List&lt;Account&gt;</text><rect fill="none" height="6" style="stroke:#C82930;stroke-width:1.0;" width="6" x="310.5" y="65.9453"></rect><text fill="#000000" font-family="sans-serif" font-size="14" lengthAdjust="spacing" textLength="229" x="322.5" y="72.292">_transactions: List&lt;Transaction&gt;</text><line style="stroke:#181818;stroke-width:0.5;" x1="303.5" x2="685.5" y1="79.5938" y2="79.5938"></line><ellipse cx="313.5" cy="93.2422" fill="#84BE84" rx="3" ry="3" style="stroke:#038048;stroke-width:1.0;"></ellipse><text fill="#000000" font-family="sans-serif" font-size="14" lengthAdjust="spacing" textLength="45" x="322.5" y="96.5889">Bank()</text><ellipse cx="313.5" cy="109.5391" fill="#84BE84" rx="3" ry="3" style="stroke:#038048;stroke-width:1.0;"></ellipse><text fill="#000000" font-family="sans-serif" font-size="14" lengthAdjust="spacing" textLength="253" x="322.5" y="112.8857">AddAccount(account: Account): void</text><ellipse cx="313.5" cy="125.8359" fill="#84BE84" rx="3" ry="3" style="stroke:#038048;stroke-width:1.0;"></ellipse><text fill="#000000" font-family="sans-serif" font-size="14" lengthAdjust="spacing" textLength="245" x="322.5" y="129.1826">GetAccount(name: string): Account</text><ellipse cx="313.5" cy="142.1328" fill="#84BE84" rx="3" ry="3" style="stroke:#038048;stroke-width:1.0;"></ellipse><text fill="#000000" font-family="sans-serif" font-size="14" lengthAdjust="spacing" textLength="351" x="322.5" y="145.4795">ExecuteTransaction(transaction: Transaction): void</text><ellipse cx="313.5" cy="158.4297" fill="#84BE84" rx="3" ry="3" style="stroke:#038048;stroke-width:1.0;"></ellipse><text fill="#000000" font-family="sans-serif" font-size="14" lengthAdjust="spacing" textLength="344" x="322.5" y="161.7764">RollbackTransaction(transactionNumber: int): void</text><ellipse cx="313.5" cy="174.7266" fill="#84BE84" rx="3" ry="3" style="stroke:#038048;stroke-width:1.0;"></ellipse><text fill="#000000" font-family="sans-serif" font-size="14" lengthAdjust="spacing" textLength="206" x="322.5" y="178.0732">PrintTransactionHistory(): void</text><ellipse cx="313.5" cy="191.0234" fill="#84BE84" rx="3" ry="3" style="stroke:#038048;stroke-width:1.0;"></ellipse><text fill="#000000" font-family="sans-serif" font-size="14" lengthAdjust="spacing" textLength="358" x="322.5" y="194.3701">GetTransactionByNumber(number: int): Transaction</text></g><!--class Transaction--><g id="elem_Transaction"><rect codeline="25" fill="#F1F1F1" height="243.5625" id="Transaction" rx="2.5" ry="2.5" style="stroke:#181818;stroke-width:0.5;" width="350" x="500.5" y="261.68"></rect><ellipse cx="630.75" cy="277.68" fill="#A9DCDF" rx="11" ry="11" style="stroke:#181818;stroke-width:1.0;"></ellipse><path d="M630.8594,273.0237 L629.7031,278.1019 L632.0313,278.1019 L630.8594,273.0237 Z M629.375,270.7894 L632.3594,270.7894 L635.7188,283.18 L633.2656,283.18 L632.5,280.1175 L629.2188,280.1175 L628.4688,283.18 L626.0313,283.18 L629.375,270.7894 Z " fill="#000000"></path><text fill="#000000" font-family="sans-serif" font-size="14" font-style="italic" lengthAdjust="spacing" textLength="81" x="651.25" y="282.5267">Transaction</text><line style="stroke:#181818;stroke-width:0.5;" x1="501.5" x2="849.5" y1="293.68" y2="293.68"></line><polygon fill="none" points="511.5,302.3284,515.5,306.3284,511.5,310.3284,507.5,306.3284" style="stroke:#B38D22;stroke-width:1.0;"></polygon><text fill="#000000" font-family="sans-serif" font-size="14" lengthAdjust="spacing" textLength="122" x="520.5" y="310.6751">_amount: decimal</text><polygon fill="none" points="511.5,318.6253,515.5,322.6253,511.5,326.6253,507.5,322.6253" style="stroke:#B38D22;stroke-width:1.0;"></polygon><text fill="#000000" font-family="sans-serif" font-size="14" lengthAdjust="spacing" textLength="104" x="520.5" y="326.972">_success: bool</text><rect fill="none" height="6" style="stroke:#C82930;stroke-width:1.0;" width="6" x="508.5" y="336.9222"></rect><text fill="#000000" font-family="sans-serif" font-size="14" lengthAdjust="spacing" textLength="111" x="520.5" y="343.2689">_executed: bool</text><rect fill="none" height="6" style="stroke:#C82930;stroke-width:1.0;" width="6" x="508.5" y="353.2191"></rect><text fill="#000000" font-family="sans-serif" font-size="14" lengthAdjust="spacing" textLength="107" x="520.5" y="359.5657">_reversed: bool</text><rect fill="none" height="6" style="stroke:#C82930;stroke-width:1.0;" width="6" x="508.5" y="369.5159"></rect><text fill="#000000" font-family="sans-serif" font-size="14" lengthAdjust="spacing" textLength="158" x="520.5" y="375.8626">_dateStamp: DateTime</text><ellipse cx="511.5" cy="388.8128" fill="none" rx="3" ry="3" style="stroke:#038048;stroke-width:1.0;"></ellipse><text fill="#000000" font-family="sans-serif" font-size="14" lengthAdjust="spacing" textLength="324" x="520.5" y="392.1595">«property» abstract Success: bool {read-only}</text><ellipse cx="511.5" cy="405.1097" fill="none" rx="3" ry="3" style="stroke:#038048;stroke-width:1.0;"></ellipse><text fill="#000000" font-family="sans-serif" font-size="14" lengthAdjust="spacing" textLength="296" x="520.5" y="408.4564">«property» Executed: boolean {read-only}</text><ellipse cx="511.5" cy="421.4066" fill="none" rx="3" ry="3" style="stroke:#038048;stroke-width:1.0;"></ellipse><text fill="#000000" font-family="sans-serif" font-size="14" lengthAdjust="spacing" textLength="297" x="520.5" y="424.7532">«property» Reversed: boolean {read-only}</text><ellipse cx="511.5" cy="437.7034" fill="none" rx="3" ry="3" style="stroke:#038048;stroke-width:1.0;"></ellipse><text fill="#000000" font-family="sans-serif" font-size="14" lengthAdjust="spacing" textLength="319" x="520.5" y="441.0501">«property» DateStamp: DateTime {read-only}</text><line style="stroke:#181818;stroke-width:0.5;" x1="501.5" x2="849.5" y1="448.3519" y2="448.3519"></line><ellipse cx="511.5" cy="462.0003" fill="#84BE84" rx="3" ry="3" style="stroke:#038048;stroke-width:1.0;"></ellipse><text fill="#000000" font-family="sans-serif" font-size="14" lengthAdjust="spacing" textLength="165" x="520.5" y="465.347">«virtual» Execute(): void</text><ellipse cx="511.5" cy="478.2972" fill="#84BE84" rx="3" ry="3" style="stroke:#038048;stroke-width:1.0;"></ellipse><text fill="#000000" font-family="sans-serif" font-size="14" lengthAdjust="spacing" textLength="167" x="520.5" y="481.6439">«virtual» Rollback(): void</text><ellipse cx="511.5" cy="494.5941" fill="#84BE84" rx="3" ry="3" style="stroke:#038048;stroke-width:1.0;"></ellipse><text fill="#000000" font-family="sans-serif" font-size="14" lengthAdjust="spacing" textLength="138" x="520.5" y="497.9407">abstract Print(): void</text></g><!--class WithdrawTransaction--><g id="elem_WithdrawTransaction"><rect codeline="40" fill="#F1F1F1" height="145.7813" id="WithdrawTransaction" rx="2.5" ry="2.5" style="stroke:#181818;stroke-width:0.5;" width="425" x="7" y="589.68"></rect><ellipse cx="143.25" cy="605.68" fill="#ADD1B2" rx="11" ry="11" style="stroke:#181818;stroke-width:1.0;"></ellipse><path d="M146.2188,611.3206 Q145.6406,611.6175 145,611.7581 Q144.3594,611.9144 143.6563,611.9144 Q141.1563,611.9144 139.8281,610.2738 Q138.5156,608.6175 138.5156,605.4925 Q138.5156,602.3675 139.8281,600.7113 Q141.1563,599.055 143.6563,599.055 Q144.3594,599.055 145,599.2113 Q145.6563,599.3675 146.2188,599.6644 L146.2188,602.3831 Q145.5938,601.805 145,601.5394 Q144.4063,601.2581 143.7813,601.2581 Q142.4375,601.2581 141.75,602.3363 Q141.0625,603.3988 141.0625,605.4925 Q141.0625,607.5863 141.75,608.6644 Q142.4375,609.7269 143.7813,609.7269 Q144.4063,609.7269 145,609.4613 Q145.5938,609.18 146.2188,608.6019 L146.2188,611.3206 Z " fill="#000000"></path><text fill="#000000" font-family="sans-serif" font-size="14" lengthAdjust="spacing" textLength="144" x="163.75" y="610.5267">WithdrawTransaction</text><line style="stroke:#181818;stroke-width:0.5;" x1="8" x2="431" y1="621.68" y2="621.68"></line><rect fill="none" height="6" style="stroke:#C82930;stroke-width:1.0;" width="6" x="15" y="632.3284"></rect><text fill="#000000" font-family="sans-serif" font-size="14" lengthAdjust="spacing" textLength="129" x="27" y="638.6751">_account: Account</text><ellipse cx="18" cy="651.6253" fill="none" rx="3" ry="3" style="stroke:#038048;stroke-width:1.0;"></ellipse><text fill="#000000" font-family="sans-serif" font-size="14" lengthAdjust="spacing" textLength="324" x="27" y="654.972">«property» override Success: bool {read-only}</text><line style="stroke:#181818;stroke-width:0.5;" x1="8" x2="431" y1="662.2738" y2="662.2738"></line><ellipse cx="18" cy="675.9222" fill="#84BE84" rx="3" ry="3" style="stroke:#038048;stroke-width:1.0;"></ellipse><text fill="#000000" font-family="sans-serif" font-size="14" lengthAdjust="spacing" textLength="399" x="27" y="679.2689">WithdrawTransaction(account: Account, amount: decimal)</text><ellipse cx="18" cy="692.2191" fill="#84BE84" rx="3" ry="3" style="stroke:#038048;stroke-width:1.0;"></ellipse><text fill="#000000" font-family="sans-serif" font-size="14" lengthAdjust="spacing" textLength="138" x="27" y="695.5657">override Print(): void</text><ellipse cx="18" cy="708.5159" fill="#84BE84" rx="3" ry="3" style="stroke:#038048;stroke-width:1.0;"></ellipse><text fill="#000000" font-family="sans-serif" font-size="14" lengthAdjust="spacing" textLength="163" x="27" y="711.8626">override Execute(): void</text><ellipse cx="18" cy="724.8128" fill="#84BE84" rx="3" ry="3" style="stroke:#038048;stroke-width:1.0;"></ellipse><text fill="#000000" font-family="sans-serif" font-size="14" lengthAdjust="spacing" textLength="165" x="27" y="728.1595">override Rollback(): void</text></g><!--class DepositTransaction--><g id="elem_DepositTransaction"><rect codeline="49" fill="#F1F1F1" height="145.7813" id="DepositTransaction" rx="2.5" ry="2.5" style="stroke:#181818;stroke-width:0.5;" width="416" x="467.5" y="589.68"></rect><ellipse cx="603.75" cy="605.68" fill="#ADD1B2" rx="11" ry="11" style="stroke:#181818;stroke-width:1.0;"></ellipse><path d="M606.7188,611.3206 Q606.1406,611.6175 605.5,611.7581 Q604.8594,611.9144 604.1563,611.9144 Q601.6563,611.9144 600.3281,610.2738 Q599.0156,608.6175 599.0156,605.4925 Q599.0156,602.3675 600.3281,600.7113 Q601.6563,599.055 604.1563,599.055 Q604.8594,599.055 605.5,599.2113 Q606.1563,599.3675 606.7188,599.6644 L606.7188,602.3831 Q606.0938,601.805 605.5,601.5394 Q604.9063,601.2581 604.2813,601.2581 Q602.9375,601.2581 602.25,602.3363 Q601.5625,603.3988 601.5625,605.4925 Q601.5625,607.5863 602.25,608.6644 Q602.9375,609.7269 604.2813,609.7269 Q604.9063,609.7269 605.5,609.4613 Q606.0938,609.18 606.7188,608.6019 L606.7188,611.3206 Z " fill="#000000"></path><text fill="#000000" font-family="sans-serif" font-size="14" lengthAdjust="spacing" textLength="135" x="624.25" y="610.5267">DepositTransaction</text><line style="stroke:#181818;stroke-width:0.5;" x1="468.5" x2="882.5" y1="621.68" y2="621.68"></line><rect fill="none" height="6" style="stroke:#C82930;stroke-width:1.0;" width="6" x="475.5" y="632.3284"></rect><text fill="#000000" font-family="sans-serif" font-size="14" lengthAdjust="spacing" textLength="129" x="487.5" y="638.6751">_account: Account</text><ellipse cx="478.5" cy="651.6253" fill="none" rx="3" ry="3" style="stroke:#038048;stroke-width:1.0;"></ellipse><text fill="#000000" font-family="sans-serif" font-size="14" lengthAdjust="spacing" textLength="324" x="487.5" y="654.972">«property» override Success: bool {read-only}</text><line style="stroke:#181818;stroke-width:0.5;" x1="468.5" x2="882.5" y1="662.2738" y2="662.2738"></line><ellipse cx="478.5" cy="675.9222" fill="#84BE84" rx="3" ry="3" style="stroke:#038048;stroke-width:1.0;"></ellipse><text fill="#000000" font-family="sans-serif" font-size="14" lengthAdjust="spacing" textLength="390" x="487.5" y="679.2689">DepositTransaction(account: Account, amount: decimal)</text><ellipse cx="478.5" cy="692.2191" fill="#84BE84" rx="3" ry="3" style="stroke:#038048;stroke-width:1.0;"></ellipse><text fill="#000000" font-family="sans-serif" font-size="14" lengthAdjust="spacing" textLength="138" x="487.5" y="695.5657">override Print(): void</text><ellipse cx="478.5" cy="708.5159" fill="#84BE84" rx="3" ry="3" style="stroke:#038048;stroke-width:1.0;"></ellipse><text fill="#000000" font-family="sans-serif" font-size="14" lengthAdjust="spacing" textLength="163" x="487.5" y="711.8626">override Execute(): void</text><ellipse cx="478.5" cy="724.8128" fill="#84BE84" rx="3" ry="3" style="stroke:#038048;stroke-width:1.0;"></ellipse><text fill="#000000" font-family="sans-serif" font-size="14" lengthAdjust="spacing" textLength="165" x="487.5" y="728.1595">override Rollback(): void</text></g><!--class TransferTransaction--><g id="elem_TransferTransaction"><rect codeline="58" fill="#F1F1F1" height="194.6719" id="TransferTransaction" rx="2.5" ry="2.5" style="stroke:#181818;stroke-width:0.5;" width="596" x="918.5" y="565.24"></rect><ellipse cx="1143.25" cy="581.24" fill="#ADD1B2" rx="11" ry="11" style="stroke:#181818;stroke-width:1.0;"></ellipse><path d="M1146.2188,586.8806 Q1145.6406,587.1775 1145,587.3181 Q1144.3594,587.4744 1143.6563,587.4744 Q1141.1563,587.4744 1139.8281,585.8338 Q1138.5156,584.1775 1138.5156,581.0525 Q1138.5156,577.9275 1139.8281,576.2713 Q1141.1563,574.615 1143.6563,574.615 Q1144.3594,574.615 1145,574.7713 Q1145.6563,574.9275 1146.2188,575.2244 L1146.2188,577.9431 Q1145.5938,577.365 1145,577.0994 Q1144.4063,576.8181 1143.7813,576.8181 Q1142.4375,576.8181 1141.75,577.8963 Q1141.0625,578.9588 1141.0625,581.0525 Q1141.0625,583.1463 1141.75,584.2244 Q1142.4375,585.2869 1143.7813,585.2869 Q1144.4063,585.2869 1145,585.0213 Q1145.5938,584.74 1146.2188,584.1619 L1146.2188,586.8806 Z " fill="#000000"></path><text fill="#000000" font-family="sans-serif" font-size="14" lengthAdjust="spacing" textLength="138" x="1163.75" y="586.0867">TransferTransaction</text><line style="stroke:#181818;stroke-width:0.5;" x1="919.5" x2="1513.5" y1="597.24" y2="597.24"></line><rect fill="none" height="6" style="stroke:#C82930;stroke-width:1.0;" width="6" x="926.5" y="607.8884"></rect><text fill="#000000" font-family="sans-serif" font-size="14" lengthAdjust="spacing" textLength="161" x="938.5" y="614.2351">_fromAccount: Account</text><rect fill="none" height="6" style="stroke:#C82930;stroke-width:1.0;" width="6" x="926.5" y="624.1853"></rect><text fill="#000000" font-family="sans-serif" font-size="14" lengthAdjust="spacing" textLength="144" x="938.5" y="630.532">_toAccount: Account</text><rect fill="none" height="6" style="stroke:#C82930;stroke-width:1.0;" width="6" x="926.5" y="640.4822"></rect><text fill="#000000" font-family="sans-serif" font-size="14" lengthAdjust="spacing" textLength="203" x="938.5" y="646.8289">_deposit: DepositTransaction</text><rect fill="none" height="6" style="stroke:#C82930;stroke-width:1.0;" width="6" x="926.5" y="656.7791"></rect><text fill="#000000" font-family="sans-serif" font-size="14" lengthAdjust="spacing" textLength="221" x="938.5" y="663.1257">_withdraw: WithdrawTransaction</text><ellipse cx="929.5" cy="676.0759" fill="none" rx="3" ry="3" style="stroke:#038048;stroke-width:1.0;"></ellipse><text fill="#000000" font-family="sans-serif" font-size="14" lengthAdjust="spacing" textLength="324" x="938.5" y="679.4226">«property» override Success: bool {read-only}</text><line style="stroke:#181818;stroke-width:0.5;" x1="919.5" x2="1513.5" y1="686.7244" y2="686.7244"></line><ellipse cx="929.5" cy="700.3728" fill="#84BE84" rx="3" ry="3" style="stroke:#038048;stroke-width:1.0;"></ellipse><text fill="#000000" font-family="sans-serif" font-size="14" lengthAdjust="spacing" textLength="570" x="938.5" y="703.7195">TransferTransaction(fromAccount: Account, toAccount: Account, amount: decimal)</text><ellipse cx="929.5" cy="716.6697" fill="#84BE84" rx="3" ry="3" style="stroke:#038048;stroke-width:1.0;"></ellipse><text fill="#000000" font-family="sans-serif" font-size="14" lengthAdjust="spacing" textLength="138" x="938.5" y="720.0164">override Print(): void</text><ellipse cx="929.5" cy="732.9666" fill="#84BE84" rx="3" ry="3" style="stroke:#038048;stroke-width:1.0;"></ellipse><text fill="#000000" font-family="sans-serif" font-size="14" lengthAdjust="spacing" textLength="163" x="938.5" y="736.3132">override Execute(): void</text><ellipse cx="929.5" cy="749.2634" fill="#84BE84" rx="3" ry="3" style="stroke:#038048;stroke-width:1.0;"></ellipse><text fill="#000000" font-family="sans-serif" font-size="14" lengthAdjust="spacing" textLength="165" x="938.5" y="752.6101">override Rollback(): void</text></g><!--class BankSystem--><g id="elem_BankSystem"><rect codeline="70" fill="#F1F1F1" height="64.2969" id="BankSystem" rx="2.5" ry="2.5" style="stroke:#181818;stroke-width:0.5;" width="193" x="722" y="72.19"></rect><ellipse cx="771.25" cy="88.19" fill="#ADD1B2" rx="11" ry="11" style="stroke:#181818;stroke-width:1.0;"></ellipse><path d="M774.2188,93.8306 Q773.6406,94.1275 773,94.2681 Q772.3594,94.4244 771.6563,94.4244 Q769.1563,94.4244 767.8281,92.7837 Q766.5156,91.1275 766.5156,88.0025 Q766.5156,84.8775 767.8281,83.2212 Q769.1563,81.565 771.6563,81.565 Q772.3594,81.565 773,81.7212 Q773.6563,81.8775 774.2188,82.1744 L774.2188,84.8931 Q773.5938,84.315 773,84.0494 Q772.4063,83.7681 771.7813,83.7681 Q770.4375,83.7681 769.75,84.8462 Q769.0625,85.9087 769.0625,88.0025 Q769.0625,90.0962 769.75,91.1744 Q770.4375,92.2369 771.7813,92.2369 Q772.4063,92.2369 773,91.9712 Q773.5938,91.69 774.2188,91.1119 L774.2188,93.8306 Z " fill="#000000"></path><text fill="#000000" font-family="sans-serif" font-size="14" lengthAdjust="spacing" textLength="86" x="791.75" y="93.0367">BankSystem</text><line style="stroke:#181818;stroke-width:0.5;" x1="723" x2="914" y1="104.19" y2="104.19"></line><line style="stroke:#181818;stroke-width:0.5;" x1="723" x2="914" y1="112.19" y2="112.19"></line><ellipse cx="733" cy="125.8384" fill="#84BE84" rx="3" ry="3" style="stroke:#038048;stroke-width:1.0;"></ellipse><text fill="#000000" font-family="sans-serif" font-size="14" lengthAdjust="spacing" textLength="167" x="742" y="129.1851">Main(args: string[]): void</text></g><!--link Bank to Account--><g id="link_Bank_Account"><path codeline="75" d="M431.45,201.87 C413.7,229.05 394.39,258.61 376.63,285.8 " fill="none" id="Bank-Account" style="stroke:#181818;stroke-width:1.0;"></path><text fill="#000000" font-family="sans-serif" font-size="13" lengthAdjust="spacing" textLength="8" x="418.526" y="221.6552">1</text><text fill="#000000" font-family="sans-serif" font-size="13" lengthAdjust="spacing" textLength="7" x="374.0091" y="275.1494">*</text></g><!--link Bank to Transaction--><g id="link_Bank_Transaction"><path codeline="76" d="M557.55,201.87 C570.1,221.09 583.43,241.49 596.43,261.4 " fill="none" id="Bank-Transaction" style="stroke:#181818;stroke-width:1.0;"></path><text fill="#000000" font-family="sans-serif" font-size="13" lengthAdjust="spacing" textLength="8" x="553.8865" y="221.6552">1</text><text fill="#000000" font-family="sans-serif" font-size="13" lengthAdjust="spacing" textLength="7" x="584.3984" y="250.5758">*</text></g><!--reverse link Transaction to WithdrawTransaction--><g id="link_Transaction_WithdrawTransaction"><path codeline="77" d="M482.38,505.26 C427.35,538.76 382.36,565.62 342.28,589.37 " fill="none" id="Transaction-backto-WithdrawTransaction" style="stroke:#181818;stroke-width:1.0;"></path><polygon fill="none" points="478.48,498.84,499.2,494.4,485.77,510.79,478.48,498.84" style="stroke:#181818;stroke-width:1.0;"></polygon></g><!--reverse link Transaction to DepositTransaction--><g id="link_Transaction_DepositTransaction"><path codeline="78" d="M675.5,526.45 C675.5,548.23 675.5,569.89 675.5,589.29 " fill="none" id="Transaction-backto-DepositTransaction" style="stroke:#181818;stroke-width:1.0;"></path><polygon fill="none" points="668.5,526.6,675.5,506.6,682.5,526.6,668.5,526.6" style="stroke:#181818;stroke-width:1.0;"></polygon></g><!--reverse link Transaction to TransferTransaction--><g id="link_Transaction_TransferTransaction"><path codeline="79" d="M869.18,483.67 C920.69,510.05 976.25,538.51 1027.5,564.76 " fill="none" id="Transaction-backto-TransferTransaction" style="stroke:#181818;stroke-width:1.0;"></path><polygon fill="none" points="866.38,489.59,851.77,474.24,872.77,477.13,866.38,489.59" style="stroke:#181818;stroke-width:1.0;"></polygon></g><!--SRC=[pLL1Qzim5BxxLpooYxiaXrrD2AIaR8UjZAQmmnX5bjHEr9Q29ASBNV_xPDbI94jjeR0nd-ptllVUztsIBDmWfM23iUYuXiS2O0arQX37j092CMjHOuCSjIQYj6JypWOEg644QVgDwPz4eeSAQY6QABMbUw6OzfavNCPTvcvoEPsvY0QUMUpOhaHjN-AXPq5_H-Obp5VJKPScSX2C54z5WQq7vuZVZmRSe86Lgk0pKterabmFIIqHLmXh9hW3N9z2QpkZRrOEh3U4E95ZsygfTXnws4Ug7InIxi4MTV6BuaxJO5uPqAaWI8JDhqJJr0ZVFrDtsRKrbHMmc98rAYZvPAGAUImdj0F4-N5eLVAeOu3e_KQrqMO-OJ0-o5h_tnd_uzKRWgh3c2eLxBCREjX1mfYa1ofL7EituqwZTb_1rhnUivPQzglLNeezbVguNeEdjGi7mQEaY2m5RuvFQSr5H80Y_ZByAkBsAdoRqWuBm3vZsO59tQ7cn2bQfZ3lDaC4yEAVEHtkO4qNwtHOueqQwH16jMI4lk9iPaPoP1OmFTcsr4-8wKUfd2y-cPZYbOz_dRyfF1tn7-YsR6wfp0Y_bQBTfEBxVwF8nucx2LAf0-31toAPNV1cOpCQoXpv1QJ4_vNZ43pnRRGxAarRQ_eSlY1cTeMyK-vc-FuZMBB2tbwp3pDOBc7sVkRTdyP3LyELNVqsW9pr2IYpWWacu_iV]--></g></svg>